# This file uses centimeters as units for non-parametric coordinates.

g default
v 0.315370 0.038075 -0.182079
v 0.182079 0.038075 -0.315370
v 0.000000 0.038075 -0.364158
v -0.182079 0.038075 -0.315370
v -0.315370 0.038075 -0.182079
v -0.364158 0.038075 0.000000
v -0.315370 0.038075 0.182079
v -0.182079 0.038075 0.315370
v 0.000000 0.038075 0.364158
v 0.182079 0.038075 0.315370
v 0.315370 0.038075 0.182079
v 0.364158 0.038075 0.000000
v 0.630740 0.038075 -0.364158
v 0.364158 0.038075 -0.630740
v 0.000000 0.038075 -0.728316
v -0.364158 0.038075 -0.630740
v -0.630740 0.038075 -0.364158
v -0.728316 0.038075 0.000000
v -0.630740 0.038075 0.364158
v -0.364158 0.038075 0.630740
v 0.000000 0.038075 0.728316
v 0.364158 0.038075 0.630740
v 0.630740 0.038075 0.364158
v 0.728316 0.038075 0.000000
v 0.817666 1.172252 -0.472079
v 0.472080 1.172252 -0.817666
v 0.000000 1.172252 -0.944159
v -0.472080 1.172252 -0.817666
v -0.817666 1.172252 -0.472079
v -0.944159 1.172252 0.000000
v -0.817666 1.172252 0.472080
v -0.472080 1.172252 0.817666
v 0.000000 1.172252 0.944159
v 0.472080 1.172252 0.817666
v 0.817666 1.172252 0.472080
v 0.944159 1.172252 0.000000
v 0.636714 1.172252 -0.396687
v 0.346318 1.172252 -0.687083
v -0.000000 1.172252 -0.793375
v -0.346318 1.172252 -0.687083
v -0.636714 1.172252 -0.396687
v -0.743006 1.172252 0.000000
v -0.636714 1.172252 0.396687
v -0.346318 1.172252 0.687083
v -0.000000 1.172252 0.793375
v 0.346318 1.172252 0.687083
v 0.636714 1.172252 0.396687
v 0.743006 1.172252 0.000000
v 0.000000 0.038075 0.000000
v 0.440849 0.233906 -0.254524
v 0.254525 0.233906 -0.440849
v 0.000000 0.233906 0.000000
v -0.000000 0.233906 -0.509049
v -0.254525 0.233906 -0.440849
v -0.440850 0.233906 -0.254524
v -0.509049 0.233906 0.000000
v -0.440850 0.233906 0.254524
v -0.254525 0.233906 0.440850
v -0.000000 0.233906 0.509049
v 0.254525 0.233906 0.440849
v 0.440849 0.233906 0.254525
v 0.509049 0.233906 0.000000
v 0.921809 1.797108 0.070711
v 0.668631 2.173632 0.070711
v -0.000000 2.276027 0.070711
v -0.668631 2.173632 0.070711
v -0.921809 1.797108 0.070711
v -0.965613 1.176539 0.070711
v 0.965613 1.176539 0.070711
v 1.032986 1.868165 0.070711
v 0.730106 2.301311 0.070711
v -0.000000 2.417920 0.070711
v -0.730106 2.301311 0.070711
v -1.032986 1.868165 0.070711
v -1.106912 1.176606 0.070711
v 1.106912 1.176606 0.070711
v 1.032986 1.868165 -0.070711
v 0.730106 2.301311 -0.070711
v -0.000000 2.417920 -0.070711
v -0.730106 2.301311 -0.070711
v -1.032986 1.868165 -0.070711
v -1.106912 1.176606 -0.070711
v 1.106912 1.176606 -0.070711
v 0.921809 1.797108 -0.070711
v 0.668631 2.173632 -0.070711
v -0.000000 2.276027 -0.070711
v -0.668631 2.173632 -0.070711
v -0.921809 1.797108 -0.070711
v -0.965613 1.176539 -0.070711
v 0.965613 1.176539 -0.070711
v 1.099053 1.042627 0.070711
v 0.967105 1.077983 0.070711
v 0.967105 1.077983 -0.070711
v 1.099053 1.042627 -0.070711
v -1.099053 1.042627 0.070711
v -0.967105 1.077983 0.070711
v -0.967105 1.077983 -0.070711
v -1.099053 1.042627 -0.070711
v 0.970798 0.887123 0.070711
v 0.932417 1.018223 0.070711
v 0.932417 1.018223 -0.070711
v 0.970798 0.887123 -0.070711
v -0.970798 0.887123 0.070711
v -0.932417 1.018223 0.070711
v -0.932417 1.018223 -0.070711
v -0.970798 0.887123 -0.070711
v 0.613871 0.969988 0.070711
v 0.665859 1.096311 0.070711
v 0.665859 1.096311 -0.070711
v 0.613871 0.969988 -0.070711
v -0.613871 0.969988 0.070711
v -0.665859 1.096311 0.070711
v -0.665859 1.096311 -0.070711
v -0.613871 0.969988 -0.070711
vt 0.757217 0.601395
vt 0.731005 0.575183
vt 0.695198 0.565589
vt 0.659392 0.575183
vt 0.633179 0.601395
vt 0.623585 0.637202
vt 0.633179 0.673008
vt 0.659392 0.699221
vt 0.695198 0.708815
vt 0.731005 0.699221
vt 0.757217 0.673008
vt 0.766811 0.637202
vt 0.819235 0.565589
vt 0.766811 0.513165
vt 0.695198 0.493976
vt 0.623585 0.513165
vt 0.571161 0.565589
vt 0.551972 0.637202
vt 0.571161 0.708815
vt 0.623585 0.761239
vt 0.695198 0.780428
vt 0.766811 0.761239
vt 0.819235 0.708815
vt 0.838424 0.637202
vt 0.034873 0.795599
vt 0.100832 0.795599
vt 0.169897 0.795599
vt 0.240447 0.795599
vt 0.311704 0.795599
vt 0.383285 0.795599
vt 0.454992 0.795599
vt 0.526700 0.795599
vt 0.598280 0.795599
vt 0.669537 0.795599
vt 0.740087 0.795599
vt 0.809153 0.795599
vt 0.875111 0.795599
vt 0.007987 0.990930
vt 0.087947 0.990930
vt 0.163732 0.990930
vt 0.237519 0.990930
vt 0.310358 0.990930
vt 0.382760 0.990930
vt 0.454992 0.990930
vt 0.527224 0.990930
vt 0.599627 0.990930
vt 0.672465 0.990930
vt 0.746253 0.990930
vt 0.822037 0.990930
vt 0.901998 0.990930
vt 0.390891 0.541002
vt 0.344488 0.494598
vt 0.281099 0.477613
vt 0.217710 0.494598
vt 0.171306 0.541002
vt 0.154321 0.604391
vt 0.171306 0.667780
vt 0.217710 0.714183
vt 0.281099 0.731168
vt 0.344488 0.714183
vt 0.390891 0.667780
vt 0.407876 0.604391
vt 0.367497 0.554509
vt 0.330981 0.517993
vt 0.281099 0.504627
vt 0.231217 0.517993
vt 0.194701 0.554509
vt 0.181335 0.604391
vt 0.194701 0.654273
vt 0.231217 0.690789
vt 0.281099 0.704155
vt 0.330981 0.690789
vt 0.367497 0.654273
vt 0.380863 0.604391
vt 0.695198 0.631473
vt 0.281099 0.596382
vt 0.367793 0.654444
vt 0.331152 0.691085
vt 0.281099 0.704497
vt 0.231046 0.691085
vt 0.194404 0.654444
vt 0.180992 0.604391
vt 0.194404 0.554338
vt 0.231046 0.517696
vt 0.281099 0.504284
vt 0.331152 0.517696
vt 0.367793 0.554338
vt 0.381205 0.604391
vt 0.340963 0.465689
vt 0.384786 0.465689
vt 0.347627 0.324084
vt 0.319509 0.324084
vt 0.400827 0.465689
vt 0.357919 0.324084
vt 0.384786 0.465689
vt 0.347627 0.324084
vt 0.340963 0.465689
vt 0.319509 0.324084
vt 0.281099 0.465689
vt 0.281099 0.324084
vt 0.221235 0.465689
vt 0.242688 0.324084
vt 0.177411 0.465689
vt 0.214570 0.324084
vt 0.161371 0.465689
vt 0.204278 0.324084
vt 0.177411 0.465689
vt 0.214570 0.324084
vt 0.221235 0.465689
vt 0.242688 0.324084
vt 0.281099 0.465689
vt 0.281099 0.324084
vt 0.444530 0.721480
vt 0.506413 0.629448
vt 0.533588 0.646816
vt 0.459556 0.752689
vt 0.281099 0.746508
vt 0.281099 0.781191
vt 0.117667 0.721480
vt 0.102641 0.752689
vt 0.055784 0.629448
vt 0.028609 0.646816
vt 0.045077 0.477764
vt 0.010540 0.477781
vt 0.044712 0.453674
vt 0.012461 0.445033
vt 0.517120 0.477764
vt 0.551658 0.477781
vt 0.533588 0.646816
vt 0.459556 0.752689
vt 0.281099 0.781191
vt 0.102641 0.752689
vt 0.028609 0.646816
vt 0.010540 0.477781
vt 0.012461 0.445033
vt 0.551658 0.477781
vt 0.506413 0.629448
vt 0.444530 0.721480
vt 0.281099 0.746508
vt 0.117667 0.721480
vt 0.055784 0.629448
vt 0.045077 0.477764
vt 0.044712 0.453674
vt 0.517120 0.477764
vt 0.517485 0.453674
vt 0.549737 0.445033
vt 0.517485 0.453674
vt 0.549737 0.445033
vt 0.509006 0.439067
vt 0.518388 0.407023
vt 0.509006 0.439067
vt 0.518388 0.407023
vt 0.043810 0.407023
vt 0.053191 0.439067
vt 0.053191 0.439067
vt 0.043810 0.407023
vt 0.443853 0.458154
vt 0.431145 0.427278
vt 0.443853 0.458154
vt 0.431145 0.427278
vt 0.131052 0.427278
vt 0.118345 0.458154
vt 0.118345 0.458154
vt 0.131052 0.427278
vn 0.000000 -1.000000 0.000000
vn 0.000000 -1.000000 0.000000
vn 0.000000 -1.000000 0.000000
vn 0.000000 -1.000000 0.000000
vn 0.000000 -1.000000 0.000000
vn 0.000000 -1.000000 0.000000
vn 0.000000 -1.000000 0.000000
vn 0.000000 -1.000000 0.000000
vn 0.000000 -1.000000 0.000000
vn 0.000000 -1.000000 0.000000
vn 0.000000 -1.000000 0.000000
vn 0.000000 -1.000000 0.000000
vn 0.000000 -1.000000 0.000000
vn 0.000000 -1.000000 0.000000
vn 0.000000 -1.000000 0.000000
vn 0.000000 -1.000000 0.000000
vn 0.000000 -1.000000 0.000000
vn 0.000000 -1.000000 0.000000
vn 0.000000 -1.000000 -0.000000
vn 0.000000 -1.000000 -0.000000
vn 0.000000 -1.000000 -0.000000
vn 0.000000 -1.000000 -0.000000
vn 0.000000 -1.000000 0.000000
vn 0.000000 -1.000000 0.000000
vn 0.695455 -0.180794 -0.695454
vn 0.695455 -0.180794 -0.695454
vn 0.695455 -0.180794 -0.695454
vn 0.695455 -0.180794 -0.695454
vn 0.254554 -0.180794 -0.950008
vn 0.254554 -0.180794 -0.950008
vn 0.254554 -0.180794 -0.950008
vn 0.254554 -0.180794 -0.950008
vn -0.254554 -0.180794 -0.950008
vn -0.254554 -0.180794 -0.950008
vn -0.254554 -0.180794 -0.950008
vn -0.254554 -0.180794 -0.950008
vn -0.695455 -0.180794 -0.695454
vn -0.695455 -0.180794 -0.695454
vn -0.695455 -0.180794 -0.695454
vn -0.695455 -0.180794 -0.695454
vn -0.950008 -0.180794 -0.254554
vn -0.950008 -0.180794 -0.254554
vn -0.950008 -0.180794 -0.254554
vn -0.950008 -0.180794 -0.254554
vn -0.950008 -0.180794 0.254554
vn -0.950008 -0.180794 0.254554
vn -0.950008 -0.180794 0.254554
vn -0.950008 -0.180794 0.254554
vn -0.695454 -0.180794 0.695454
vn -0.695454 -0.180794 0.695454
vn -0.695454 -0.180794 0.695454
vn -0.695454 -0.180794 0.695454
vn -0.254554 -0.180794 0.950008
vn -0.254554 -0.180794 0.950008
vn -0.254554 -0.180794 0.950008
vn -0.254554 -0.180794 0.950008
vn 0.254554 -0.180794 0.950008
vn 0.254554 -0.180794 0.950008
vn 0.254554 -0.180794 0.950008
vn 0.254554 -0.180794 0.950008
vn 0.695454 -0.180794 0.695454
vn 0.695454 -0.180794 0.695454
vn 0.695454 -0.180794 0.695454
vn 0.695454 -0.180794 0.695454
vn 0.950008 -0.180794 0.254554
vn 0.950008 -0.180794 0.254554
vn 0.950008 -0.180794 0.254554
vn 0.950008 -0.180794 0.254554
vn 0.950008 -0.180794 -0.254554
vn 0.950008 -0.180794 -0.254554
vn 0.950008 -0.180794 -0.254554
vn 0.950008 -0.180794 -0.254554
vn 0.000000 1.000000 0.000000
vn 0.000000 1.000000 0.000000
vn 0.000000 1.000000 0.000000
vn 0.000000 1.000000 0.000000
vn 0.000000 1.000000 0.000000
vn 0.000000 1.000000 0.000000
vn 0.000000 1.000000 0.000000
vn 0.000000 1.000000 0.000000
vn 0.000000 1.000000 -0.000000
vn 0.000000 1.000000 -0.000000
vn 0.000000 1.000000 0.000000
vn 0.000000 1.000000 0.000000
vn 0.000000 1.000000 0.000000
vn 0.000000 1.000000 0.000000
vn 0.000000 1.000000 -0.000000
vn 0.000000 1.000000 -0.000000
vn 0.000000 1.000000 -0.000000
vn 0.000000 1.000000 -0.000000
vn 0.000000 1.000000 -0.000000
vn 0.000000 1.000000 -0.000000
vn 0.000000 1.000000 0.000000
vn 0.000000 1.000000 0.000000
vn 0.000000 1.000000 0.000000
vn 0.000000 1.000000 0.000000
vn 0.000000 -1.000000 0.000000
vn 0.000000 1.000000 -0.000000
vn 0.000000 1.000000 -0.000000
vn 0.000000 1.000000 0.000000
vn 0.000000 1.000000 0.000000
vn 0.000000 1.000000 -0.000000
vn 0.000000 1.000000 0.000000
vn 0.000000 1.000000 0.000000
vn 0.000000 1.000000 0.000000
vn 0.000000 1.000000 0.000000
vn 0.000000 1.000000 0.000000
vn 0.000000 1.000000 0.000000
vn 0.000000 1.000000 -0.000000
vn 0.000000 1.000000 -0.000000
vn -0.685225 0.246844 0.685226
vn -0.685225 0.246844 0.685226
vn -0.685225 0.246844 0.685226
vn -0.685225 0.246844 0.685226
vn -0.268200 0.274205 0.923515
vn -0.268200 0.274205 0.923515
vn -0.268200 0.274205 0.923515
vn -0.268200 0.274205 0.923515
vn 0.268199 0.274205 0.923515
vn 0.268199 0.274205 0.923515
vn 0.268200 0.274205 0.923515
vn 0.268200 0.274205 0.923515
vn 0.685226 0.246844 0.685226
vn 0.685226 0.246844 0.685226
vn 0.685226 0.246844 0.685226
vn 0.685225 0.246844 0.685226
vn 0.939076 0.234139 0.251625
vn 0.939076 0.234139 0.251625
vn 0.939076 0.234139 0.251625
vn 0.939076 0.234139 0.251625
vn 0.939076 0.234139 -0.251625
vn 0.939076 0.234139 -0.251625
vn 0.939076 0.234139 -0.251625
vn 0.939076 0.234139 -0.251625
vn 0.685226 0.246844 -0.685225
vn 0.685226 0.246844 -0.685225
vn 0.685226 0.246844 -0.685225
vn 0.685226 0.246844 -0.685225
vn 0.268200 0.274205 -0.923515
vn 0.268200 0.274205 -0.923515
vn 0.268200 0.274205 -0.923515
vn 0.268200 0.274205 -0.923515
vn -0.268200 0.274205 -0.923515
vn -0.268200 0.274205 -0.923515
vn -0.268200 0.274205 -0.923515
vn -0.268200 0.274205 -0.923515
vn -0.685225 0.246844 -0.685226
vn -0.685225 0.246844 -0.685226
vn -0.685225 0.246844 -0.685226
vn -0.685225 0.246844 -0.685226
vn -0.939076 0.234139 -0.251625
vn -0.939076 0.234139 -0.251625
vn -0.939076 0.234139 -0.251625
vn -0.939076 0.234139 -0.251625
vn -0.939076 0.234139 0.251625
vn -0.939076 0.234139 0.251625
vn -0.939076 0.234139 0.251625
vn -0.939076 0.234139 0.251625
vn -0.000000 0.000000 1.000000
vn -0.000000 0.000000 1.000000
vn -0.000000 0.000000 1.000000
vn -0.000000 0.000000 1.000000
vn 0.000000 0.000000 1.000000
vn 0.000000 0.000000 1.000000
vn 0.000000 0.000000 1.000000
vn 0.000000 0.000000 1.000000
vn -0.000000 0.000000 1.000000
vn -0.000000 0.000000 1.000000
vn -0.000000 0.000000 1.000000
vn -0.000000 0.000000 1.000000
vn 0.000000 0.000000 1.000000
vn 0.000000 0.000000 1.000000
vn 0.000000 0.000000 1.000000
vn 0.000000 0.000000 1.000000
vn -0.000000 0.000000 1.000000
vn -0.000000 0.000000 1.000000
vn -0.000000 0.000000 1.000000
vn -0.000000 0.000000 1.000000
vn -0.000000 0.000000 1.000000
vn -0.000000 0.000000 1.000000
vn -0.000000 0.000000 1.000000
vn -0.000000 0.000000 1.000000
vn 0.000000 0.000000 1.000000
vn 0.000000 0.000000 1.000000
vn 0.000000 0.000000 1.000000
vn 0.000000 0.000000 1.000000
vn 0.819519 0.573052 0.000000
vn 0.819519 0.573052 0.000000
vn 0.819519 0.573052 0.000000
vn 0.819519 0.573052 0.000000
vn 0.157715 0.987485 0.000000
vn 0.157715 0.987485 0.000000
vn 0.157715 0.987485 0.000000
vn 0.157715 0.987485 0.000000
vn -0.157715 0.987485 0.000000
vn -0.157715 0.987485 0.000000
vn -0.157715 0.987485 0.000000
vn -0.157715 0.987485 0.000000
vn -0.819519 0.573052 0.000000
vn -0.819519 0.573052 0.000000
vn -0.819519 0.573052 0.000000
vn -0.819519 0.573052 0.000000
vn -0.994335 0.106292 0.000000
vn -0.994335 0.106292 0.000000
vn -0.994335 0.106292 0.000000
vn -0.994335 0.106292 0.000000
vn -0.998284 -0.058557 0.000000
vn -0.998284 -0.058557 0.000000
vn -0.998284 -0.058557 0.000000
vn -0.998284 -0.058557 0.000000
vn 0.994335 0.106292 0.000000
vn 0.994335 0.106292 0.000000
vn 0.994335 0.106292 0.000000
vn 0.994335 0.106292 0.000000
vn 0.000000 0.000000 -1.000000
vn 0.000000 0.000000 -1.000000
vn 0.000000 0.000000 -1.000000
vn 0.000000 0.000000 -1.000000
vn 0.000000 0.000000 -1.000000
vn 0.000000 0.000000 -1.000000
vn 0.000000 0.000000 -1.000000
vn 0.000000 0.000000 -1.000000
vn -0.000000 0.000000 -1.000000
vn -0.000000 0.000000 -1.000000
vn -0.000000 0.000000 -1.000000
vn -0.000000 0.000000 -1.000000
vn -0.000000 0.000000 -1.000000
vn -0.000000 0.000000 -1.000000
vn -0.000000 0.000000 -1.000000
vn -0.000000 0.000000 -1.000000
vn -0.000000 0.000000 -1.000000
vn -0.000000 0.000000 -1.000000
vn -0.000000 0.000000 -1.000000
vn -0.000000 0.000000 -1.000000
vn -0.000000 0.000000 -1.000000
vn -0.000000 0.000000 -1.000000
vn -0.000000 0.000000 -1.000000
vn -0.000000 0.000000 -1.000000
vn 0.000000 0.000000 -1.000000
vn 0.000000 0.000000 -1.000000
vn 0.000000 0.000000 -1.000000
vn 0.000000 0.000000 -1.000000
vn -0.829844 -0.557995 0.000000
vn -0.829844 -0.557995 0.000000
vn -0.829844 -0.557995 0.000000
vn -0.829844 -0.557995 0.000000
vn -0.151376 -0.988476 0.000000
vn -0.151377 -0.988476 0.000000
vn -0.151377 -0.988476 0.000000
vn -0.151376 -0.988476 0.000000
vn 0.151377 -0.988476 -0.000000
vn 0.151376 -0.988476 -0.000000
vn 0.151376 -0.988476 -0.000000
vn 0.151377 -0.988476 -0.000000
vn 0.829844 -0.557995 0.000000
vn 0.829844 -0.557995 0.000000
vn 0.829844 -0.557995 0.000000
vn 0.829844 -0.557995 0.000000
vn 0.997518 -0.070410 0.000000
vn 0.997518 -0.070410 0.000000
vn 0.997518 -0.070410 0.000000
vn 0.997518 -0.070410 0.000000
vn 0.999885 -0.015142 0.000000
vn 0.999885 -0.015142 0.000000
vn 0.999885 -0.015142 0.000000
vn 0.999885 -0.015142 0.000000
vn -0.997518 -0.070410 0.000000
vn -0.997518 -0.070410 0.000000
vn -0.997518 -0.070410 0.000000
vn -0.997518 -0.070410 0.000000
vn 0.000000 0.000000 1.000000
vn 0.000000 0.000000 1.000000
vn 0.000000 0.000000 1.000000
vn 0.000000 0.000000 1.000000
vn -0.999885 -0.015142 0.000000
vn -0.999885 -0.015142 0.000000
vn -0.999885 -0.015142 0.000000
vn -0.999885 -0.015142 0.000000
vn 0.000000 0.000000 -1.000000
vn 0.000000 0.000000 -1.000000
vn 0.000000 0.000000 -1.000000
vn 0.000000 0.000000 -1.000000
vn 0.998284 -0.058557 0.000000
vn 0.998284 -0.058557 0.000000
vn 0.998284 -0.058557 0.000000
vn 0.998284 -0.058557 0.000000
vn -0.000000 0.000000 1.000000
vn -0.000000 0.000000 1.000000
vn -0.000000 0.000000 1.000000
vn -0.000000 0.000000 1.000000
vn -0.864860 0.502013 0.000000
vn -0.864860 0.502013 0.000000
vn -0.864860 0.502013 0.000000
vn -0.864860 0.502013 0.000000
vn -0.000000 0.000000 -1.000000
vn -0.000000 0.000000 -1.000000
vn -0.000000 0.000000 -1.000000
vn -0.000000 0.000000 -1.000000
vn 0.771460 -0.636277 -0.000001
vn 0.771460 -0.636277 -0.000001
vn 0.771460 -0.636277 -0.000001
vn 0.771460 -0.636277 -0.000001
vn 0.000000 0.000000 1.000000
vn 0.000000 0.000000 1.000000
vn 0.000000 0.000000 1.000000
vn 0.000000 0.000000 1.000000
vn 0.864860 0.502013 0.000000
vn 0.864860 0.502013 0.000000
vn 0.864860 0.502013 0.000000
vn 0.864860 0.502013 0.000000
vn 0.000000 0.000000 -1.000000
vn 0.000000 0.000000 -1.000000
vn 0.000000 0.000000 -1.000000
vn 0.000000 0.000000 -1.000000
vn -0.771460 -0.636277 -0.000001
vn -0.771460 -0.636277 -0.000001
vn -0.771460 -0.636277 -0.000001
vn -0.771460 -0.636277 -0.000001
vn 0.000000 0.000000 1.000000
vn 0.000000 0.000000 1.000000
vn 0.000000 0.000000 1.000000
vn 0.000000 0.000000 1.000000
vn 0.281135 0.959668 0.000000
vn 0.281135 0.959668 0.000000
vn 0.281135 0.959668 0.000000
vn 0.281135 0.959668 0.000000
vn 0.000000 0.000000 -1.000000
vn 0.000000 0.000000 -1.000000
vn 0.000000 0.000000 -1.000000
vn 0.000000 0.000000 -1.000000
vn -0.226148 -0.974093 -0.000001
vn -0.226148 -0.974093 -0.000001
vn -0.226148 -0.974093 -0.000001
vn -0.226148 -0.974093 -0.000001
vn 0.000000 0.000000 1.000000
vn 0.000000 0.000000 1.000000
vn 0.000000 0.000000 1.000000
vn 0.000000 0.000000 1.000000
vn -0.281135 0.959668 0.000000
vn -0.281135 0.959668 0.000000
vn -0.281135 0.959668 0.000000
vn -0.281135 0.959668 0.000000
vn -0.000000 0.000000 -1.000000
vn -0.000000 0.000000 -1.000000
vn -0.000000 0.000000 -1.000000
vn -0.000000 0.000000 -1.000000
vn 0.226148 -0.974093 -0.000001
vn 0.226148 -0.974093 -0.000001
vn 0.226148 -0.974093 -0.000001
vn 0.226148 -0.974093 -0.000001
vn -0.924747 0.380583 0.000000
vn -0.924747 0.380583 0.000000
vn -0.924747 0.380583 0.000000
vn -0.924747 0.380583 0.000000
vn 0.924747 0.380583 0.000000
vn 0.924747 0.380583 0.000000
vn 0.924747 0.380583 0.000000
vn 0.924747 0.380583 0.000000
s 1
g bucket
f 1/1/1 2/2/2 14/14/3 13/13/4
f 2/2/2 3/3/5 15/15/6 14/14/3
f 3/3/5 4/4/7 16/16/8 15/15/6
f 4/4/7 5/5/9 17/17/10 16/16/8
f 5/5/9 6/6/11 18/18/12 17/17/10
f 6/6/11 7/7/13 19/19/14 18/18/12
f 7/7/13 8/8/15 20/20/16 19/19/14
f 8/8/15 9/9/17 21/21/18 20/20/16
f 9/9/17 10/10/19 22/22/20 21/21/18
f 10/10/19 11/11/21 23/23/22 22/22/20
f 11/11/21 12/12/23 24/24/24 23/23/22
f 12/12/23 1/1/1 13/13/4 24/24/24
s off
f 13/25/25 14/26/26 26/39/27 25/38/28
f 14/26/29 15/27/30 27/40/31 26/39/32
f 15/27/33 16/28/34 28/41/35 27/40/36
f 16/28/37 17/29/38 29/42/39 28/41/40
f 17/29/41 18/30/42 30/43/43 29/42/44
f 18/30/45 19/31/46 31/44/47 30/43/48
f 19/31/49 20/32/50 32/45/51 31/44/52
f 20/32/53 21/33/54 33/46/55 32/45/56
f 21/33/57 22/34/58 34/47/59 33/46/60
f 22/34/61 23/35/62 35/48/63 34/47/64
f 23/35/65 24/36/66 36/49/67 35/48/68
f 24/36/69 13/37/70 25/50/71 36/49/72
s 2
f 25/61/73 26/60/74 38/72/75 37/73/76
f 26/60/74 27/59/77 39/71/78 38/72/75
f 27/59/77 28/58/79 40/70/80 39/71/78
f 28/58/79 29/57/81 41/69/82 40/70/80
f 29/57/81 30/56/83 42/68/84 41/69/82
f 30/56/83 31/55/85 43/67/86 42/68/84
f 31/55/85 32/54/87 44/66/88 43/67/86
f 32/54/87 33/53/89 45/65/90 44/66/88
f 33/53/89 34/52/91 46/64/92 45/65/90
f 34/52/91 35/51/93 47/63/94 46/64/92
f 35/51/93 36/62/95 48/74/96 47/63/94
f 36/62/95 25/61/73 37/73/76 48/74/96
s 1
f 2/2/2 1/1/1 49/75/97
f 3/3/5 2/2/2 49/75/97
f 4/4/7 3/3/5 49/75/97
f 5/5/9 4/4/7 49/75/97
f 6/6/11 5/5/9 49/75/97
f 7/7/13 6/6/11 49/75/97
f 8/8/15 7/7/13 49/75/97
f 9/9/17 8/8/15 49/75/97
f 10/10/19 9/9/17 49/75/97
f 11/11/21 10/10/19 49/75/97
f 12/12/23 11/11/21 49/75/97
f 1/1/1 12/12/23 49/75/97
s 3
f 50/77/98 51/78/99 52/76/100
f 51/78/99 53/79/101 52/76/100
f 53/79/101 54/80/102 52/76/100
f 54/80/102 55/81/103 52/76/100
f 55/81/103 56/82/104 52/76/100
f 56/82/104 57/83/105 52/76/100
f 57/83/105 58/84/106 52/76/100
f 58/84/106 59/85/107 52/76/100
f 59/85/107 60/86/108 52/76/100
f 60/86/108 61/87/109 52/76/100
f 61/87/109 62/88/110 52/76/100
f 62/88/110 50/77/98 52/76/100
s off
f 37/89/111 38/90/112 51/91/113 50/92/114
f 38/90/115 39/93/116 53/94/117 51/91/118
f 39/93/119 40/95/120 54/96/121 53/94/122
f 40/95/123 41/97/124 55/98/125 54/96/126
f 41/97/127 42/99/128 56/100/129 55/98/130
f 42/99/131 43/101/132 57/102/133 56/100/134
f 43/101/135 44/103/136 58/104/137 57/102/138
f 44/103/139 45/105/140 59/106/141 58/104/142
f 45/105/143 46/107/144 60/108/145 59/106/146
f 46/107/147 47/109/148 61/110/149 60/108/150
f 47/109/151 48/111/152 62/112/153 61/110/154
f 48/111/155 37/89/156 50/92/157 62/112/158
f 64/113/159 63/114/160 70/115/161 71/116/162
f 65/117/163 64/113/164 71/116/165 72/118/166
f 66/119/167 65/117/168 72/118/169 73/120/170
f 67/121/171 66/119/172 73/120/173 74/122/174
f 68/123/175 67/121/176 74/122/177 75/124/178
f 96/125/179 68/123/180 75/124/181 95/126/182
f 63/114/183 69/127/184 76/128/185 70/115/186
f 71/116/187 70/115/188 77/129/189 78/130/190
f 72/118/191 71/116/192 78/130/193 79/131/194
f 73/120/195 72/118/196 79/131/197 80/132/198
f 74/122/199 73/120/200 80/132/201 81/133/202
f 75/124/203 74/122/204 81/133/205 82/134/206
f 98/135/207 95/126/208 75/124/209 82/134/210
f 70/115/211 76/128/212 83/136/213 77/129/214
f 78/130/215 77/129/216 84/137/217 85/138/218
f 79/131/219 78/130/220 85/138/221 86/139/222
f 80/132/223 79/131/224 86/139/225 87/140/226
f 81/133/227 80/132/228 87/140/229 88/141/230
f 82/134/231 81/133/232 88/141/233 89/142/234
f 98/135/235 82/134/236 89/142/237 97/143/238
f 77/129/239 83/136/240 90/144/241 84/137/242
f 85/138/243 84/137/244 63/114/245 64/113/246
f 86/139/247 85/138/248 64/113/249 65/117/250
f 87/140/251 86/139/252 65/117/253 66/119/254
f 88/141/255 87/140/256 66/119/257 67/121/258
f 89/142/259 88/141/260 67/121/261 68/123/262
f 97/143/263 89/142/264 68/123/265 96/125/266
f 84/137/267 90/144/268 69/127/269 63/114/270
f 69/127/271 92/145/272 91/146/273 76/128/274
f 90/144/275 93/147/276 92/145/277 69/127/278
f 83/136/279 94/148/280 93/147/281 90/144/282
f 76/128/283 91/146/284 94/148/285 83/136/286
f 91/146/287 92/145/288 100/149/289 99/150/290
f 92/145/291 93/147/292 101/151/293 100/149/294
f 93/147/295 94/148/296 102/152/297 101/151/298
f 94/148/299 91/146/300 99/150/301 102/152/302
f 96/125/303 95/126/304 103/153/305 104/154/306
f 97/143/307 96/125/308 104/154/309 105/155/310
f 98/135/311 97/143/312 105/155/313 106/156/314
f 95/126/315 98/135/316 106/156/317 103/153/318
f 99/150/319 100/149/320 108/157/321 107/158/322
f 100/149/323 101/151/324 109/159/325 108/157/326
f 101/151/327 102/152/328 110/160/329 109/159/330
f 102/152/331 99/150/332 107/158/333 110/160/334
f 104/154/335 103/153/336 111/161/337 112/162/338
f 105/155/339 104/154/340 112/162/341 113/163/342
f 106/156/343 105/155/344 113/163/345 114/164/346
f 103/153/347 106/156/348 114/164/349 111/161/350
f 108/157/351 109/159/352 110/160/353 107/158/354
f 112/162/355 111/161/356 114/164/357 113/163/358
