# This file uses centimeters as units for non-parametric coordinates.

g default
v 0.141421 0.141421 0.011598
v -0.000000 0.200000 0.011598
v -0.141421 0.141421 0.011598
v -0.200000 0.000000 0.011598
v -0.141421 -0.141421 0.011598
v -0.000000 -0.200000 0.011598
v 0.141421 -0.141421 0.011598
v 0.200000 0.000000 0.011598
v 0.141421 0.141421 -1.421244
v 0.000000 0.200000 -1.421244
v -0.141421 0.141421 -1.421244
v -0.200000 0.000000 -1.421244
v -0.141421 -0.141421 -1.421244
v -0.000000 -0.200000 -1.421244
v 0.141421 -0.141421 -1.421244
v 0.200000 0.000000 -1.421244
vt 0.886371 0.485549
vt 0.915793 0.485549
vt 0.915793 0.783646
vt 0.886371 0.783646
vt 0.856949 0.485549
vt 0.856949 0.783646
vt 0.844762 0.485549
vt 0.844762 0.783646
vt 0.856949 0.485549
vt 0.856949 0.783646
vt 0.886371 0.485549
vt 0.886371 0.783646
vt 0.915793 0.485549
vt 0.915793 0.783646
vt 0.927981 0.485549
vt 0.927981 0.783646
vn 0.000000 1.000000 0.000000
vn 0.707107 0.707107 -0.000000
vn 0.707107 0.707107 -0.000000
vn 0.000000 1.000000 0.000000
vn -0.707107 0.707107 0.000000
vn -0.707107 0.707107 0.000000
vn -1.000000 -0.000000 0.000000
vn -1.000000 -0.000000 0.000000
vn -0.707107 -0.707107 0.000000
vn -0.707107 -0.707107 0.000000
vn -0.000000 -1.000000 0.000000
vn -0.000000 -1.000000 0.000000
vn 0.707107 -0.707107 0.000000
vn 0.707107 -0.707107 0.000000
vn 1.000000 0.000000 0.000000
vn 1.000000 0.000000 0.000000
s 1
g hose_segment
f 2/1/1 1/2/2 9/3/3 10/4/4
f 3/5/5 2/1/1 10/4/4 11/6/6
f 4/7/7 3/5/5 11/6/6 12/8/8
f 5/9/9 4/7/7 12/8/8 13/10/10
f 6/11/11 5/9/9 13/10/10 14/12/12
f 7/13/13 6/11/11 14/12/12 15/14/14
f 8/15/15 7/13/13 15/14/14 16/16/16
f 1/2/2 8/15/15 16/16/16 9/3/3
