# This file uses centimeters as units for non-parametric coordinates.

g default
v 0.141421 0.141421 0.011598
v -0.000000 0.200000 0.011598
v -0.141421 0.141421 0.011598
v -0.200000 0.000000 0.011598
v -0.141421 -0.141421 0.011598
v -0.000000 -0.200000 0.011598
v 0.141421 -0.141421 0.011598
v 0.200000 0.000000 0.011598
v 0.160647 0.160647 1.981405
v -0.000000 0.227190 1.981405
v -0.160647 0.160647 1.981405
v -0.227190 0.000000 1.981405
v -0.160647 -0.160647 1.981405
v -0.000000 -0.227190 1.981405
v 0.160647 -0.160647 1.981405
v 0.227190 0.000000 1.981405
v 0.100117 0.100117 1.981405
v -0.000000 0.141587 1.981405
v -0.100117 0.100117 1.981405
v -0.141587 0.000000 1.981405
v -0.100117 -0.100117 1.981405
v -0.000000 -0.141587 1.981405
v 0.100117 -0.100117 1.981405
v 0.141587 0.000000 1.981405
v 0.115067 0.000000 1.756394
v 0.081365 -0.081365 1.756394
v 0.000000 -0.115067 1.756394
v -0.081365 -0.081365 1.756394
v -0.115067 0.000000 1.756394
v -0.081365 0.081365 1.756394
v 0.000000 0.115067 1.756394
v 0.081365 0.081365 1.756394
v 0.248336 0.000000 0.340487
v 0.175600 -0.175600 0.340487
v -0.000000 -0.248336 0.340487
v -0.175600 -0.175600 0.340487
v -0.248336 0.000000 0.340487
v -0.175600 0.175600 0.340487
v -0.000000 0.248336 0.340487
v 0.175600 0.175600 0.340487
v 0.227190 -0.000000 1.775968
v 0.160647 -0.160647 1.775968
v -0.000000 -0.227190 1.775968
v -0.160647 -0.160647 1.775968
v -0.227190 -0.000000 1.775968
v -0.160647 0.160647 1.775968
v -0.000000 0.227190 1.775968
v 0.160647 0.160647 1.775968
v 0.306120 0.306120 0.011598
v -0.000000 0.432919 0.011598
v -0.000000 0.432919 0.340487
v 0.306120 0.306120 0.340487
v -0.306120 0.306120 0.011598
v -0.306120 0.306120 0.340487
v -0.432919 0.000000 0.011598
v -0.432919 0.000000 0.340487
v -0.306120 -0.306120 0.011598
v -0.306120 -0.306120 0.340487
v -0.000000 -0.432919 0.011598
v -0.000000 -0.432919 0.340487
v 0.306120 -0.306120 0.011598
v 0.306120 -0.306120 0.340487
v 0.432919 0.000000 0.011598
v 0.432919 0.000000 0.340487
v 0.071688 0.071688 1.807868
v 0.000000 0.101382 1.807868
v -0.071688 0.071688 1.807868
v -0.101382 -0.000000 1.807868
v -0.071688 -0.071688 1.807868
v 0.000000 -0.101382 1.807868
v 0.071688 -0.071688 1.807867
v 0.101382 -0.000000 1.807868
vt 0.959910 0.482638
vt 0.886371 0.482638
vt 0.886371 0.403630
vt 0.959910 0.403630
vt 0.812833 0.482638
vt 0.812833 0.403630
vt 0.782372 0.482638
vt 0.782372 0.403630
vt 0.812833 0.482638
vt 0.812833 0.403630
vt 0.886371 0.482638
vt 0.886371 0.403630
vt 0.959910 0.482638
vt 0.959910 0.403630
vt 0.990371 0.482638
vt 0.990371 0.403630
vt 0.924963 0.009435
vt 0.886371 0.009435
vt 0.886371 0.009435
vt 0.910422 0.009435
vt 0.847779 0.009435
vt 0.862320 0.009435
vt 0.831794 0.009435
vt 0.852358 0.009435
vt 0.847779 0.009435
vt 0.862320 0.009435
vt 0.886371 0.009435
vt 0.886371 0.009435
vt 0.924963 0.009435
vt 0.910422 0.009435
vt 0.940949 0.009435
vt 0.920385 0.009435
vt 0.905918 0.063489
vt 0.914014 0.063489
vt 0.940949 0.058786
vt 0.924963 0.058786
vt 0.886371 0.063489
vt 0.886371 0.058786
vt 0.866825 0.063489
vt 0.847779 0.058786
vt 0.858729 0.063489
vt 0.831794 0.058786
vt 0.866825 0.063489
vt 0.847779 0.058786
vt 0.886371 0.063489
vt 0.886371 0.058786
vt 0.905918 0.063489
vt 0.924963 0.058786
vt 0.928555 0.403630
vt 0.946029 0.403630
vt 0.886371 0.403630
vt 0.844187 0.403630
vt 0.826714 0.403630
vt 0.844187 0.403630
vt 0.886371 0.403630
vt 0.928555 0.403630
vt 0.920345 0.482638
vt 0.886371 0.482638
vt 0.852398 0.482638
vt 0.838326 0.482638
vt 0.852398 0.482638
vt 0.886371 0.482638
vt 0.920345 0.482638
vt 0.934417 0.482638
vt 0.886371 0.051123
vt 0.903593 0.051123
vt 0.869150 0.051123
vt 0.862017 0.051123
vt 0.869150 0.051123
vt 0.886371 0.051123
vt 0.903593 0.051123
vt 0.910726 0.051123
vn 0.707107 0.707107 -0.000000
vn 0.000000 1.000000 -0.000000
vn -0.000000 1.000000 -0.000000
vn 0.707107 0.707107 -0.000000
vn -0.707107 0.707107 -0.000000
vn -0.707107 0.707107 -0.000000
vn -1.000000 0.000000 0.000000
vn -1.000000 0.000000 0.000000
vn -0.707107 -0.707107 0.000000
vn -0.707107 -0.707107 0.000000
vn -0.000000 -1.000000 0.000000
vn -0.000000 -1.000000 0.000000
vn 0.707107 -0.707107 0.000000
vn 0.707107 -0.707107 0.000000
vn 1.000000 0.000000 0.000000
vn 1.000000 0.000000 0.000000
vn 0.000001 0.000000 1.000000
vn -0.000000 0.000001 1.000000
vn -0.000000 0.000001 1.000000
vn 0.000001 0.000000 1.000000
vn -0.000001 0.000000 1.000000
vn -0.000001 0.000000 1.000000
vn 0.000000 0.000000 1.000000
vn 0.000000 0.000000 1.000000
vn 0.000001 0.000000 1.000000
vn 0.000001 0.000000 1.000000
vn -0.000000 0.000001 1.000000
vn 0.000000 0.000001 1.000000
vn -0.000001 0.000000 1.000000
vn -0.000001 0.000000 1.000000
vn -0.000000 0.000000 1.000000
vn -0.000000 0.000000 1.000000
vn 0.121610 -0.121610 -0.985100
vn 0.171983 0.000000 -0.985100
vn 0.171983 -0.000000 -0.985100
vn 0.121610 -0.121610 -0.985100
vn 0.000000 -0.171982 -0.985100
vn -0.000000 -0.171982 -0.985100
vn -0.121610 -0.121610 -0.985100
vn -0.121610 -0.121610 -0.985100
vn -0.171983 0.000000 -0.985100
vn -0.171983 -0.000000 -0.985100
vn -0.121610 0.121610 -0.985100
vn -0.121610 0.121610 -0.985100
vn 0.000000 0.171982 -0.985100
vn -0.000000 0.171982 -0.985100
vn 0.121610 0.121610 -0.985100
vn 0.121610 0.121610 -0.985100
vn 0.703995 -0.703995 0.093708
vn 0.995600 0.000000 0.093708
vn 0.995600 0.000000 0.093708
vn 0.703995 -0.703995 0.093708
vn -0.000000 -0.995600 0.093708
vn -0.000000 -0.995600 0.093708
vn -0.703995 -0.703995 0.093708
vn -0.703995 -0.703995 0.093708
vn -0.995600 0.000000 0.093708
vn -0.995600 0.000000 0.093708
vn -0.703995 0.703995 0.093708
vn -0.703995 0.703995 0.093708
vn 0.000000 0.995600 0.093708
vn -0.000000 0.995600 0.093708
vn 0.703995 0.703995 0.093708
vn 0.703995 0.703995 0.093708
vn 0.707107 -0.707107 0.000000
vn 1.000000 -0.000000 -0.000000
vn 1.000000 0.000000 -0.000000
vn 0.707107 -0.707107 0.000000
vn 0.000000 -1.000000 0.000000
vn 0.000000 -1.000000 0.000000
vn -0.707107 -0.707107 0.000000
vn -0.707107 -0.707107 0.000000
vn -1.000000 -0.000000 -0.000000
vn -1.000000 0.000000 -0.000000
vn -0.707107 0.707107 -0.000000
vn -0.707107 0.707107 -0.000000
vn 0.000000 1.000000 -0.000000
vn 0.000000 1.000000 -0.000000
vn 0.707107 0.707107 -0.000000
vn 0.707107 0.707107 -0.000000
vn 0.000000 0.000000 -1.000000
vn 0.000000 0.000000 -1.000000
vn 0.000000 0.000000 -1.000000
vn 0.000000 0.000000 -1.000000
vn 0.000000 0.000000 1.000000
vn 0.000000 0.000000 1.000000
vn 0.000000 0.000000 1.000000
vn 0.000000 0.000000 1.000000
vn 0.000000 0.000000 -1.000000
vn 0.000000 0.000000 -1.000000
vn 0.000000 0.000000 1.000000
vn 0.000000 0.000000 1.000000
vn 0.000000 0.000000 -1.000000
vn 0.000000 0.000000 -1.000000
vn 0.000000 0.000000 1.000000
vn 0.000000 0.000000 1.000000
vn 0.000000 0.000000 -1.000000
vn 0.000000 0.000000 -1.000000
vn 0.000000 -0.000000 1.000000
vn 0.000000 -0.000000 1.000000
vn 0.000000 0.000000 -1.000000
vn 0.000000 0.000000 -1.000000
vn 0.000000 -0.000000 1.000000
vn 0.000000 -0.000000 1.000000
vn 0.000000 0.000000 -1.000000
vn 0.000000 0.000000 -1.000000
vn 0.000000 -0.000000 1.000000
vn 0.000000 -0.000000 1.000000
vn 0.000000 0.000000 -1.000000
vn 0.000000 0.000000 -1.000000
vn 0.000000 -0.000000 1.000000
vn 0.000000 -0.000000 1.000000
vn -0.688861 -0.688861 0.225702
vn -0.000000 -0.974196 0.225703
vn -0.000000 -0.974196 0.225703
vn -0.688861 -0.688860 0.225702
vn 0.688861 -0.688861 0.225702
vn 0.688861 -0.688861 0.225702
vn 0.974196 -0.000000 0.225702
vn 0.974196 0.000000 0.225702
vn 0.688861 0.688861 0.225702
vn 0.688861 0.688861 0.225702
vn 0.000000 0.974196 0.225702
vn 0.000000 0.974196 0.225702
vn -0.688861 0.688861 0.225702
vn -0.688861 0.688861 0.225702
vn -0.974196 -0.000000 0.225702
vn -0.974196 0.000000 0.225702
s 1
g hose_head
f 49/1/1 50/2/2 51/3/3 52/4/4
f 50/2/2 53/5/5 54/6/6 51/3/3
f 53/5/5 55/7/7 56/8/8 54/6/6
f 55/7/7 57/9/9 58/10/10 56/8/8
f 57/9/9 59/11/11 60/12/12 58/10/10
f 59/11/11 61/13/13 62/14/14 60/12/12
f 61/13/13 63/15/15 64/16/16 62/14/14
f 63/15/15 49/1/1 52/4/4 64/16/16
s 2
f 9/17/17 10/18/18 18/19/19 17/20/20
f 10/18/18 11/21/21 19/22/22 18/19/19
f 11/21/21 12/23/23 20/24/24 19/22/22
f 12/23/23 13/25/25 21/26/26 20/24/24
f 13/25/25 14/27/27 22/28/28 21/26/26
f 14/27/27 15/29/29 23/30/30 22/28/28
f 15/29/29 16/31/31 24/32/32 23/30/30
f 16/31/31 9/17/17 17/20/20 24/32/32
s 3
f 26/33/33 25/34/34 41/35/35 42/36/36
f 27/37/37 26/33/33 42/36/36 43/38/38
f 28/39/39 27/37/37 43/38/38 44/40/40
f 29/41/41 28/39/39 44/40/40 45/42/42
f 30/43/43 29/41/41 45/42/42 46/44/44
f 31/45/45 30/43/43 46/44/44 47/46/46
f 32/47/47 31/45/45 47/46/46 48/48/48
f 25/34/34 32/47/47 48/48/48 41/35/35
s 4
f 34/49/49 33/50/50 25/34/51 26/33/52
f 35/51/53 34/49/49 26/33/52 27/37/54
f 36/52/55 35/51/53 27/37/54 28/39/56
f 37/53/57 36/52/55 28/39/56 29/41/58
f 38/54/59 37/53/57 29/41/58 30/43/60
f 39/55/61 38/54/59 30/43/60 31/45/62
f 40/56/63 39/55/61 31/45/62 32/47/64
f 33/50/50 40/56/63 32/47/64 25/34/51
s 5
f 42/36/65 41/35/66 16/31/67 15/29/68
f 43/38/69 42/36/65 15/29/68 14/27/70
f 44/40/71 43/38/69 14/27/70 13/25/72
f 45/42/73 44/40/71 13/25/72 12/23/74
f 46/44/75 45/42/73 12/23/74 11/21/76
f 47/46/77 46/44/75 11/21/76 10/18/78
f 48/48/79 47/46/77 10/18/78 9/17/80
f 41/35/66 48/48/79 9/17/80 16/31/67
s 6
f 1/57/81 2/58/82 50/2/83 49/1/84
s 7
f 39/55/85 40/56/86 52/4/87 51/3/88
s 6
f 2/58/82 3/59/89 53/5/90 50/2/83
s 7
f 38/54/91 39/55/85 51/3/88 54/6/92
s 6
f 3/59/89 4/60/93 55/7/94 53/5/90
s 7
f 37/53/95 38/54/91 54/6/92 56/8/96
s 6
f 4/60/93 5/61/97 57/9/98 55/7/94
s 7
f 36/52/99 37/53/95 56/8/96 58/10/100
s 6
f 5/61/97 6/62/101 59/11/102 57/9/98
s 7
f 35/51/103 36/52/99 58/10/100 60/12/104
s 6
f 6/62/101 7/63/105 61/13/106 59/11/102
s 7
f 34/49/107 35/51/103 60/12/104 62/14/108
s 6
f 7/63/105 8/64/109 63/15/110 61/13/106
s 7
f 33/50/111 34/49/107 62/14/108 64/16/112
s 6
f 8/64/109 1/57/81 49/1/84 63/15/110
s 7
f 40/56/86 33/50/111 64/16/112 52/4/87
s 8
f 17/20/113 18/19/114 66/65/115 65/66/116
f 18/19/114 19/22/117 67/67/118 66/65/115
f 19/22/117 20/24/119 68/68/120 67/67/118
f 20/24/119 21/26/121 69/69/122 68/68/120
f 21/26/121 22/28/123 70/70/124 69/69/122
f 22/28/123 23/30/125 71/71/126 70/70/124
f 23/30/125 24/32/127 72/72/128 71/71/126
f 24/32/127 17/20/113 65/66/116 72/72/128
